<svg width="25" height="24" viewBox="0 0 25 24" fill="none" xmlns="http://www.w3.org/2000/svg">
<path d="M11.6704 1.84582L12.0416 7.36577L12.2259 10.1402C12.2279 10.4255 12.2726 10.709 12.3588 10.9814C12.5814 11.5102 13.1168 11.8462 13.6994 11.8227L22.5756 11.242C22.96 11.2358 23.3312 11.3795 23.6075 11.6418C23.8378 11.8603 23.9864 12.1462 24.0334 12.4536L24.0491 12.6403C23.6818 17.7266 19.9462 21.969 14.8704 23.064C9.79463 24.1591 4.58971 21.8458 2.08151 17.3799C1.35842 16.0824 0.906767 14.6564 0.753074 13.1854C0.688874 12.7499 0.660607 12.31 0.668541 11.87C0.660607 6.41701 4.54386 1.70265 9.97967 0.566131C10.6339 0.464251 11.2753 0.810598 11.5376 1.40741C11.6055 1.54562 11.6503 1.69365 11.6704 1.84582Z" fill="white"/>
</svg>
